<svg xmlns="http://www.w3.org/2000/svg" width="613.201" height="157.333" viewBox="0 0 613.201 157.333"><g transform="translate(818 -1714)"><path d="M55.068,136.076A93.751,93.751,0,0,0,65.5,137.8q4.028.462,8.134,1l-.482-3.046a9.545,9.545,0,0,0-1.4-4,4.052,4.052,0,0,0-1.938-1.518,24.818,24.818,0,0,0-11.265-1.351,48.256,48.256,0,0,0-4.836.656,12.721,12.721,0,0,0-3.465,1.124,4.491,4.491,0,0,0-1.541,1.252,2.714,2.714,0,0,0-.023.8c.18.823-.016.485.61,1.052A16.761,16.761,0,0,0,55.068,136.076Zm50.507,11.074a33.9,33.9,0,0,1,6.626,4.98,75.435,75.435,0,0,1,.626-13.34l-25.775,2.072q2.582.511,5.137,1.108A50.016,50.016,0,0,1,105.575,147.151ZM58.513,186.967a29.681,29.681,0,0,0,7.075.259v-.007c.066,0,.131-.01.2-.01a27.121,27.121,0,0,0,5.144-1,16.849,16.849,0,0,0,4.446-1.951,7.535,7.535,0,0,0,2.4-2.374,3.648,3.648,0,0,0,.37-2.387c-.1-.59-.049-.538-.554-1.079a10.676,10.676,0,0,0-4.321-1.97,182.7,182.7,0,0,0-24.854-4.282c-.213-.026-.42-.052-.626-.082l.446,5.541a8.419,8.419,0,0,0,1.413,4.439l0,.013a10.484,10.484,0,0,0,3.469,3.1A16.225,16.225,0,0,0,58.513,186.967ZM418.46,133.336c-2.183-1.816-5.714-2.954-12.009-2.259a20.974,20.974,0,0,0-8.875,2.682,16.141,16.141,0,0,0-4.964,4.646,15.707,15.707,0,0,0-1.718,3.426l31.568-3.619A18.359,18.359,0,0,0,418.46,133.336Zm-4.16,51.029c.062-.01.118-.016.177-.023a21.338,21.338,0,0,0,11.642-4.609,16.644,16.644,0,0,0,4.187-4.75l39.085-4.567.148-5.554-75.935,8.6c1.436,4.091,3.347,6.649,5.38,8.1l0,0C402.193,183.912,406.94,185.158,414.3,184.364ZM309.214,114.8l-37.754,0,.007,25.831,37.748-3.246ZM176.582,186.62c6.111-.531,9.491-2.308,11.681-4.813,2.5-2.937,4.055-6.711,4.468-12.192l.066-9.963,37.331-3.849.148-5.95L192.145,153.8l-2.544-9.743c-1.242-4.836-2.308-5.822-4.534-8.216-.61-.659-.865-1.069-3.482-2.1a17,17,0,0,0-9.248-.784,15.019,15.019,0,0,0-7.809,2.721,18.744,18.744,0,0,0-5.419,6.485,27.269,27.269,0,0,0-2.783,9.081,50.55,50.55,0,0,0-.285,10.547,48.193,48.193,0,0,0,1.951,10.032,27.968,27.968,0,0,0,4.032,8.33,16.466,16.466,0,0,0,6.019,5.121A15.54,15.54,0,0,0,176.582,186.62Zm413.3-43.606a18.842,18.842,0,0,0-27.119,0,16.143,16.143,0,0,0-4.741,11.566h-.033l1.056,64.441-36.862,0H517.4V155.009l-5.973.469v63.539l-41.856,0V184.308a63.013,63.013,0,0,1-119.108-5.383v40.092H309.211l0-44.485-37.751,3.246,0,41.239-41.256,0,0-30.361a49.367,49.367,0,0,1-15.448,20.6,57.82,57.82,0,0,1-25.29,11.084l-14.91,1.315a69.883,69.883,0,0,1-25.139-4.406A57.414,57.414,0,0,1,129.514,204.7a56.37,56.37,0,0,1-10.963-15.156,34.2,34.2,0,0,1-4.131,9.95,40.963,40.963,0,0,1-13.638,13.471,54.749,54.749,0,0,1-18.339,6.849,105.4,105.4,0,0,1-19.72,1.849H62.71a102.273,102.273,0,0,1-20.08-1.96,58.175,58.175,0,0,1-17.6-6.429l51,58.39H606.409l31.823-52.64H594.646l0-63.726-.066,0A16.146,16.146,0,0,0,589.879,143.014Z" transform="translate(-843.031 1599.673)" fill="#2e7567"/><path d="M161.849,114.651a16.227,16.227,0,1,0,32.207,0Z" transform="translate(-531.578 1599.349)" fill="#2e7567"/></g></svg>